# xmcd CD database file
#
# Track frame offsets:
#	150
#	11840
#	40829
#	71006
#	83249
#	108341
#	140546
#	163010
#	175760
#	189917
#	200562
#	213184
#	226447
#	246060
#	259525
#	271510
#	283541
#	297277
#	306976
#
# Disc length: 4277 seconds
#
# Revision: 0
# Processed by: cddbd v1.5.2PL0 Copyright (c) Steve Scherf et al.
# Submitted via: Feurio! 1.68 - http://www.feurio.com
#
DISCID=0c10b313
DTITLE=Nina Simone - Four Women Box Set - CD1
DYEAR=1900
DGENRE=
TTITLE0=Nina Simone In Concert - I Loves You, Porgy
TTITLE1=Nina Simone In Concert - Plain Gold Ring
TTITLE2=Nina Simone In Concert - Pirate Jenny
TTITLE3=Nina Simone In Concert - Old Jim Crow
TTITLE4=Nina Simone In Concert - Don't Smoke In Bed
TTITLE5=Nina Simone In Concert - Go Limp
TTITLE6=Nina Simone In Concert - Mississippi Goddam
TTITLE7=Broadway-Blues-Ballads - Don't Let Me Be Misunderstood
TTITLE8=Broadway-Blues-Ballads - Night Song
TTITLE9=Broadway-Blues-Ballads - The Laziest Gal In Town
TTITLE10=Broadway-Blues-Ballads - Something Wonderful
TTITLE11=Broadway-Blues-Ballads - Don't Take All Night
TTITLE12=Broadway-Blues-Ballads - Nobody
TTITLE13=Broadway-Blues-Ballads - I'm Blessed
TTITLE14=Broadway-Blues-Ballads - Of This I'm Sure
TTITLE15=Broadway-Blues-Ballads - See-Line Woman
TTITLE16=Broadway-Blues-Ballads - Our Love (Will See Us Through)
TTITLE17=Broadway-Blues-Ballads - How Can I
TTITLE18=Broadway-Blues-Ballads - The Last Rose Of Summer
EXTD=
EXTT0=
EXTT1=
EXTT2=
EXTT3=
EXTT4=
EXTT5=
EXTT6=
EXTT7=
EXTT8=
EXTT9=
EXTT10=
EXTT11=
EXTT12=
EXTT13=
EXTT14=
EXTT15=
EXTT16=
EXTT17=
EXTT18=
PLAYORDER=
